<mxfile host="Electron" agent="Mozilla/5.0 (Windows NT 10.0; Win64; x64) AppleWebKit/537.36 (KHTML, like Gecko) draw.io/27.0.9 Chrome/134.0.6998.205 Electron/35.4.0 Safari/537.36" version="27.0.9">
  <diagram name="Page-1" id="0-liQ12JAfoAojJOQCV-">
    <mxGraphModel dx="1042" dy="626" grid="0" gridSize="10" guides="1" tooltips="1" connect="1" arrows="1" fold="1" page="1" pageScale="1" pageWidth="850" pageHeight="1100" background="#ffffff" math="0" shadow="0">
      <root>
        <mxCell id="0" />
        <mxCell id="1" parent="0" />
        <mxCell id="yqSlcoim51JeQD3WpPbe-1" value="&lt;font style=&quot;color: rgb(0, 0, 0); font-size: 28px;&quot;&gt;&lt;b&gt;Data Mart (Star Schema)&lt;/b&gt;&lt;/font&gt;" style="text;html=1;align=center;verticalAlign=middle;whiteSpace=wrap;rounded=0;" vertex="1" parent="1">
          <mxGeometry width="330" height="40" as="geometry" />
        </mxCell>
        <mxCell id="yqSlcoim51JeQD3WpPbe-6" value="&lt;font style=&quot;color: rgb(0, 0, 0);&quot;&gt;gold.dim_customers&lt;/font&gt;" style="shape=table;startSize=41;container=1;collapsible=1;childLayout=tableLayout;fixedRows=1;rowLines=0;fontStyle=1;align=center;resizeLast=1;html=1;strokeColor=#d6b656;rounded=1;fillColor=#fff2cc;fontSize=16;labelBackgroundColor=none;gradientColor=#ffd966;" vertex="1" parent="1">
          <mxGeometry x="16" y="108" width="180" height="611" as="geometry">
            <mxRectangle x="40" y="100" width="64" height="30" as="alternateBounds" />
          </mxGeometry>
        </mxCell>
        <mxCell id="yqSlcoim51JeQD3WpPbe-7" value="" style="shape=tableRow;horizontal=0;startSize=0;swimlaneHead=0;swimlaneBody=0;fillColor=none;collapsible=0;dropTarget=0;points=[[0,0.5],[1,0.5]];portConstraint=eastwest;top=0;left=0;right=0;bottom=1;strokeColor=#000000;fontSize=16;fontColor=#000000;" vertex="1" parent="yqSlcoim51JeQD3WpPbe-6">
          <mxGeometry y="41" width="180" height="57" as="geometry" />
        </mxCell>
        <mxCell id="yqSlcoim51JeQD3WpPbe-8" value="&lt;font style=&quot;&quot;&gt;PK&lt;/font&gt;" style="shape=partialRectangle;connectable=0;fillColor=none;top=0;left=0;bottom=0;right=0;fontStyle=1;overflow=hidden;whiteSpace=wrap;html=1;strokeColor=#000000;fontSize=16;fontColor=#000000;" vertex="1" parent="yqSlcoim51JeQD3WpPbe-7">
          <mxGeometry width="30" height="57" as="geometry">
            <mxRectangle width="30" height="57" as="alternateBounds" />
          </mxGeometry>
        </mxCell>
        <mxCell id="yqSlcoim51JeQD3WpPbe-9" value="&lt;font style=&quot;&quot;&gt;customer_key&lt;/font&gt;" style="shape=partialRectangle;connectable=0;fillColor=none;top=0;left=0;bottom=0;right=0;align=left;spacingLeft=6;fontStyle=5;overflow=hidden;whiteSpace=wrap;html=1;strokeColor=#000000;fontSize=16;fontColor=#000000;" vertex="1" parent="yqSlcoim51JeQD3WpPbe-7">
          <mxGeometry x="30" width="150" height="57" as="geometry">
            <mxRectangle width="150" height="57" as="alternateBounds" />
          </mxGeometry>
        </mxCell>
        <mxCell id="yqSlcoim51JeQD3WpPbe-10" value="" style="shape=tableRow;horizontal=0;startSize=0;swimlaneHead=0;swimlaneBody=0;fillColor=none;collapsible=0;dropTarget=0;points=[[0,0.5],[1,0.5]];portConstraint=eastwest;top=0;left=0;right=0;bottom=0;strokeColor=#000000;fontSize=16;fontColor=#000000;" vertex="1" parent="yqSlcoim51JeQD3WpPbe-6">
          <mxGeometry y="98" width="180" height="57" as="geometry" />
        </mxCell>
        <mxCell id="yqSlcoim51JeQD3WpPbe-11" value="" style="shape=partialRectangle;connectable=0;fillColor=none;top=0;left=0;bottom=0;right=0;editable=1;overflow=hidden;whiteSpace=wrap;html=1;strokeColor=#000000;fontSize=16;fontColor=#000000;" vertex="1" parent="yqSlcoim51JeQD3WpPbe-10">
          <mxGeometry width="30" height="57" as="geometry">
            <mxRectangle width="30" height="57" as="alternateBounds" />
          </mxGeometry>
        </mxCell>
        <mxCell id="yqSlcoim51JeQD3WpPbe-12" value="customer_id" style="shape=partialRectangle;connectable=0;fillColor=none;top=0;left=0;bottom=0;right=0;align=left;spacingLeft=6;overflow=hidden;whiteSpace=wrap;html=1;strokeColor=#000000;fontSize=16;fontColor=#000000;" vertex="1" parent="yqSlcoim51JeQD3WpPbe-10">
          <mxGeometry x="30" width="150" height="57" as="geometry">
            <mxRectangle width="150" height="57" as="alternateBounds" />
          </mxGeometry>
        </mxCell>
        <mxCell id="yqSlcoim51JeQD3WpPbe-13" value="" style="shape=tableRow;horizontal=0;startSize=0;swimlaneHead=0;swimlaneBody=0;fillColor=none;collapsible=0;dropTarget=0;points=[[0,0.5],[1,0.5]];portConstraint=eastwest;top=0;left=0;right=0;bottom=0;strokeColor=#000000;fontSize=16;fontColor=#000000;" vertex="1" parent="yqSlcoim51JeQD3WpPbe-6">
          <mxGeometry y="155" width="180" height="57" as="geometry" />
        </mxCell>
        <mxCell id="yqSlcoim51JeQD3WpPbe-14" value="" style="shape=partialRectangle;connectable=0;fillColor=none;top=0;left=0;bottom=0;right=0;editable=1;overflow=hidden;whiteSpace=wrap;html=1;strokeColor=#000000;fontSize=16;fontColor=#000000;" vertex="1" parent="yqSlcoim51JeQD3WpPbe-13">
          <mxGeometry width="30" height="57" as="geometry">
            <mxRectangle width="30" height="57" as="alternateBounds" />
          </mxGeometry>
        </mxCell>
        <mxCell id="yqSlcoim51JeQD3WpPbe-15" value="customer_number" style="shape=partialRectangle;connectable=0;fillColor=none;top=0;left=0;bottom=0;right=0;align=left;spacingLeft=6;overflow=hidden;whiteSpace=wrap;html=1;strokeColor=#000000;fontSize=16;fontColor=#000000;" vertex="1" parent="yqSlcoim51JeQD3WpPbe-13">
          <mxGeometry x="30" width="150" height="57" as="geometry">
            <mxRectangle width="150" height="57" as="alternateBounds" />
          </mxGeometry>
        </mxCell>
        <mxCell id="yqSlcoim51JeQD3WpPbe-16" value="" style="shape=tableRow;horizontal=0;startSize=0;swimlaneHead=0;swimlaneBody=0;fillColor=none;collapsible=0;dropTarget=0;points=[[0,0.5],[1,0.5]];portConstraint=eastwest;top=0;left=0;right=0;bottom=0;strokeColor=#000000;fontSize=16;fontColor=#000000;" vertex="1" parent="yqSlcoim51JeQD3WpPbe-6">
          <mxGeometry y="212" width="180" height="57" as="geometry" />
        </mxCell>
        <mxCell id="yqSlcoim51JeQD3WpPbe-17" value="" style="shape=partialRectangle;connectable=0;fillColor=none;top=0;left=0;bottom=0;right=0;editable=1;overflow=hidden;whiteSpace=wrap;html=1;strokeColor=#000000;fontSize=16;fontColor=#000000;" vertex="1" parent="yqSlcoim51JeQD3WpPbe-16">
          <mxGeometry width="30" height="57" as="geometry">
            <mxRectangle width="30" height="57" as="alternateBounds" />
          </mxGeometry>
        </mxCell>
        <mxCell id="yqSlcoim51JeQD3WpPbe-18" value="first_name" style="shape=partialRectangle;connectable=0;fillColor=none;top=0;left=0;bottom=0;right=0;align=left;spacingLeft=6;overflow=hidden;whiteSpace=wrap;html=1;strokeColor=#000000;fontSize=16;fontColor=#000000;" vertex="1" parent="yqSlcoim51JeQD3WpPbe-16">
          <mxGeometry x="30" width="150" height="57" as="geometry">
            <mxRectangle width="150" height="57" as="alternateBounds" />
          </mxGeometry>
        </mxCell>
        <mxCell id="yqSlcoim51JeQD3WpPbe-19" value="" style="shape=tableRow;horizontal=0;startSize=0;swimlaneHead=0;swimlaneBody=0;fillColor=none;collapsible=0;dropTarget=0;points=[[0,0.5],[1,0.5]];portConstraint=eastwest;top=0;left=0;right=0;bottom=0;strokeColor=#000000;fontSize=16;fontColor=#000000;" vertex="1" parent="yqSlcoim51JeQD3WpPbe-6">
          <mxGeometry y="269" width="180" height="57" as="geometry" />
        </mxCell>
        <mxCell id="yqSlcoim51JeQD3WpPbe-20" value="" style="shape=partialRectangle;connectable=0;fillColor=none;top=0;left=0;bottom=0;right=0;editable=1;overflow=hidden;whiteSpace=wrap;html=1;strokeColor=#000000;fontSize=16;fontColor=#000000;" vertex="1" parent="yqSlcoim51JeQD3WpPbe-19">
          <mxGeometry width="30" height="57" as="geometry">
            <mxRectangle width="30" height="57" as="alternateBounds" />
          </mxGeometry>
        </mxCell>
        <mxCell id="yqSlcoim51JeQD3WpPbe-21" value="last_name" style="shape=partialRectangle;connectable=0;fillColor=none;top=0;left=0;bottom=0;right=0;align=left;spacingLeft=6;overflow=hidden;whiteSpace=wrap;html=1;strokeColor=#000000;fontSize=16;fontColor=#000000;" vertex="1" parent="yqSlcoim51JeQD3WpPbe-19">
          <mxGeometry x="30" width="150" height="57" as="geometry">
            <mxRectangle width="150" height="57" as="alternateBounds" />
          </mxGeometry>
        </mxCell>
        <mxCell id="yqSlcoim51JeQD3WpPbe-22" value="" style="shape=tableRow;horizontal=0;startSize=0;swimlaneHead=0;swimlaneBody=0;fillColor=none;collapsible=0;dropTarget=0;points=[[0,0.5],[1,0.5]];portConstraint=eastwest;top=0;left=0;right=0;bottom=0;strokeColor=#000000;fontSize=16;fontColor=#000000;" vertex="1" parent="yqSlcoim51JeQD3WpPbe-6">
          <mxGeometry y="326" width="180" height="57" as="geometry" />
        </mxCell>
        <mxCell id="yqSlcoim51JeQD3WpPbe-23" value="" style="shape=partialRectangle;connectable=0;fillColor=none;top=0;left=0;bottom=0;right=0;editable=1;overflow=hidden;whiteSpace=wrap;html=1;strokeColor=#000000;fontSize=16;fontColor=#000000;" vertex="1" parent="yqSlcoim51JeQD3WpPbe-22">
          <mxGeometry width="30" height="57" as="geometry">
            <mxRectangle width="30" height="57" as="alternateBounds" />
          </mxGeometry>
        </mxCell>
        <mxCell id="yqSlcoim51JeQD3WpPbe-24" value="country" style="shape=partialRectangle;connectable=0;fillColor=none;top=0;left=0;bottom=0;right=0;align=left;spacingLeft=6;overflow=hidden;whiteSpace=wrap;html=1;strokeColor=#000000;fontSize=16;fontColor=#000000;" vertex="1" parent="yqSlcoim51JeQD3WpPbe-22">
          <mxGeometry x="30" width="150" height="57" as="geometry">
            <mxRectangle width="150" height="57" as="alternateBounds" />
          </mxGeometry>
        </mxCell>
        <mxCell id="yqSlcoim51JeQD3WpPbe-25" value="" style="shape=tableRow;horizontal=0;startSize=0;swimlaneHead=0;swimlaneBody=0;fillColor=none;collapsible=0;dropTarget=0;points=[[0,0.5],[1,0.5]];portConstraint=eastwest;top=0;left=0;right=0;bottom=0;strokeColor=#000000;fontSize=16;fontColor=#000000;" vertex="1" parent="yqSlcoim51JeQD3WpPbe-6">
          <mxGeometry y="383" width="180" height="57" as="geometry" />
        </mxCell>
        <mxCell id="yqSlcoim51JeQD3WpPbe-26" value="" style="shape=partialRectangle;connectable=0;fillColor=none;top=0;left=0;bottom=0;right=0;editable=1;overflow=hidden;whiteSpace=wrap;html=1;strokeColor=#000000;fontSize=16;fontColor=#000000;" vertex="1" parent="yqSlcoim51JeQD3WpPbe-25">
          <mxGeometry width="30" height="57" as="geometry">
            <mxRectangle width="30" height="57" as="alternateBounds" />
          </mxGeometry>
        </mxCell>
        <mxCell id="yqSlcoim51JeQD3WpPbe-27" value="marital_status" style="shape=partialRectangle;connectable=0;fillColor=none;top=0;left=0;bottom=0;right=0;align=left;spacingLeft=6;overflow=hidden;whiteSpace=wrap;html=1;strokeColor=#000000;fontSize=16;fontColor=#000000;" vertex="1" parent="yqSlcoim51JeQD3WpPbe-25">
          <mxGeometry x="30" width="150" height="57" as="geometry">
            <mxRectangle width="150" height="57" as="alternateBounds" />
          </mxGeometry>
        </mxCell>
        <mxCell id="yqSlcoim51JeQD3WpPbe-28" value="" style="shape=tableRow;horizontal=0;startSize=0;swimlaneHead=0;swimlaneBody=0;fillColor=none;collapsible=0;dropTarget=0;points=[[0,0.5],[1,0.5]];portConstraint=eastwest;top=0;left=0;right=0;bottom=0;strokeColor=#000000;fontSize=16;fontColor=#000000;" vertex="1" parent="yqSlcoim51JeQD3WpPbe-6">
          <mxGeometry y="440" width="180" height="57" as="geometry" />
        </mxCell>
        <mxCell id="yqSlcoim51JeQD3WpPbe-29" value="" style="shape=partialRectangle;connectable=0;fillColor=none;top=0;left=0;bottom=0;right=0;editable=1;overflow=hidden;whiteSpace=wrap;html=1;strokeColor=#000000;fontSize=16;fontColor=#000000;" vertex="1" parent="yqSlcoim51JeQD3WpPbe-28">
          <mxGeometry width="30" height="57" as="geometry">
            <mxRectangle width="30" height="57" as="alternateBounds" />
          </mxGeometry>
        </mxCell>
        <mxCell id="yqSlcoim51JeQD3WpPbe-30" value="gender" style="shape=partialRectangle;connectable=0;fillColor=none;top=0;left=0;bottom=0;right=0;align=left;spacingLeft=6;overflow=hidden;whiteSpace=wrap;html=1;strokeColor=#000000;fontSize=16;fontColor=#000000;" vertex="1" parent="yqSlcoim51JeQD3WpPbe-28">
          <mxGeometry x="30" width="150" height="57" as="geometry">
            <mxRectangle width="150" height="57" as="alternateBounds" />
          </mxGeometry>
        </mxCell>
        <mxCell id="yqSlcoim51JeQD3WpPbe-31" value="" style="shape=tableRow;horizontal=0;startSize=0;swimlaneHead=0;swimlaneBody=0;fillColor=none;collapsible=0;dropTarget=0;points=[[0,0.5],[1,0.5]];portConstraint=eastwest;top=0;left=0;right=0;bottom=0;strokeColor=#000000;fontSize=16;fontColor=#000000;" vertex="1" parent="yqSlcoim51JeQD3WpPbe-6">
          <mxGeometry y="497" width="180" height="57" as="geometry" />
        </mxCell>
        <mxCell id="yqSlcoim51JeQD3WpPbe-32" value="" style="shape=partialRectangle;connectable=0;fillColor=none;top=0;left=0;bottom=0;right=0;editable=1;overflow=hidden;whiteSpace=wrap;html=1;strokeColor=#000000;fontSize=16;fontColor=#000000;" vertex="1" parent="yqSlcoim51JeQD3WpPbe-31">
          <mxGeometry width="30" height="57" as="geometry">
            <mxRectangle width="30" height="57" as="alternateBounds" />
          </mxGeometry>
        </mxCell>
        <mxCell id="yqSlcoim51JeQD3WpPbe-33" value="birthdate" style="shape=partialRectangle;connectable=0;fillColor=none;top=0;left=0;bottom=0;right=0;align=left;spacingLeft=6;overflow=hidden;whiteSpace=wrap;html=1;strokeColor=#000000;fontSize=16;fontColor=#000000;" vertex="1" parent="yqSlcoim51JeQD3WpPbe-31">
          <mxGeometry x="30" width="150" height="57" as="geometry">
            <mxRectangle width="150" height="57" as="alternateBounds" />
          </mxGeometry>
        </mxCell>
        <mxCell id="yqSlcoim51JeQD3WpPbe-34" value="" style="shape=tableRow;horizontal=0;startSize=0;swimlaneHead=0;swimlaneBody=0;fillColor=none;collapsible=0;dropTarget=0;points=[[0,0.5],[1,0.5]];portConstraint=eastwest;top=0;left=0;right=0;bottom=0;strokeColor=#000000;fontSize=16;fontColor=#000000;" vertex="1" parent="yqSlcoim51JeQD3WpPbe-6">
          <mxGeometry y="554" width="180" height="57" as="geometry" />
        </mxCell>
        <mxCell id="yqSlcoim51JeQD3WpPbe-35" value="" style="shape=partialRectangle;connectable=0;fillColor=none;top=0;left=0;bottom=0;right=0;editable=1;overflow=hidden;whiteSpace=wrap;html=1;strokeColor=#000000;fontSize=16;fontColor=#000000;" vertex="1" parent="yqSlcoim51JeQD3WpPbe-34">
          <mxGeometry width="30" height="57" as="geometry">
            <mxRectangle width="30" height="57" as="alternateBounds" />
          </mxGeometry>
        </mxCell>
        <mxCell id="yqSlcoim51JeQD3WpPbe-36" value="country" style="shape=partialRectangle;connectable=0;fillColor=none;top=0;left=0;bottom=0;right=0;align=left;spacingLeft=6;overflow=hidden;whiteSpace=wrap;html=1;strokeColor=#000000;fontSize=16;fontColor=#000000;" vertex="1" parent="yqSlcoim51JeQD3WpPbe-34">
          <mxGeometry x="30" width="150" height="57" as="geometry">
            <mxRectangle width="150" height="57" as="alternateBounds" />
          </mxGeometry>
        </mxCell>
        <mxCell id="yqSlcoim51JeQD3WpPbe-37" value="&lt;font style=&quot;color: rgb(0, 0, 0);&quot;&gt;gold.dim_products&lt;/font&gt;" style="shape=table;startSize=41;container=1;collapsible=1;childLayout=tableLayout;fixedRows=1;rowLines=0;fontStyle=1;align=center;resizeLast=1;html=1;strokeColor=#d6b656;rounded=1;fillColor=#fff2cc;fontSize=16;labelBackgroundColor=none;gradientColor=#ffd966;" vertex="1" parent="1">
          <mxGeometry x="601" y="108" width="239.75" height="668" as="geometry">
            <mxRectangle x="40" y="100" width="64" height="30" as="alternateBounds" />
          </mxGeometry>
        </mxCell>
        <mxCell id="yqSlcoim51JeQD3WpPbe-38" value="" style="shape=tableRow;horizontal=0;startSize=0;swimlaneHead=0;swimlaneBody=0;fillColor=none;collapsible=0;dropTarget=0;points=[[0,0.5],[1,0.5]];portConstraint=eastwest;top=0;left=0;right=0;bottom=1;strokeColor=#000000;fontSize=16;fontColor=#000000;" vertex="1" parent="yqSlcoim51JeQD3WpPbe-37">
          <mxGeometry y="41" width="239.75" height="57" as="geometry" />
        </mxCell>
        <mxCell id="yqSlcoim51JeQD3WpPbe-39" value="&lt;font style=&quot;&quot;&gt;PK&lt;/font&gt;" style="shape=partialRectangle;connectable=0;fillColor=none;top=0;left=0;bottom=0;right=0;fontStyle=1;overflow=hidden;whiteSpace=wrap;html=1;strokeColor=#000000;fontSize=16;fontColor=#000000;" vertex="1" parent="yqSlcoim51JeQD3WpPbe-38">
          <mxGeometry width="30" height="57" as="geometry">
            <mxRectangle width="30" height="57" as="alternateBounds" />
          </mxGeometry>
        </mxCell>
        <mxCell id="yqSlcoim51JeQD3WpPbe-40" value="&lt;font style=&quot;&quot;&gt;product_key&lt;/font&gt;" style="shape=partialRectangle;connectable=0;fillColor=none;top=0;left=0;bottom=0;right=0;align=left;spacingLeft=6;fontStyle=5;overflow=hidden;whiteSpace=wrap;html=1;strokeColor=#000000;fontSize=16;fontColor=#000000;" vertex="1" parent="yqSlcoim51JeQD3WpPbe-38">
          <mxGeometry x="30" width="209.75" height="57" as="geometry">
            <mxRectangle width="209.75" height="57" as="alternateBounds" />
          </mxGeometry>
        </mxCell>
        <mxCell id="yqSlcoim51JeQD3WpPbe-41" value="" style="shape=tableRow;horizontal=0;startSize=0;swimlaneHead=0;swimlaneBody=0;fillColor=none;collapsible=0;dropTarget=0;points=[[0,0.5],[1,0.5]];portConstraint=eastwest;top=0;left=0;right=0;bottom=0;strokeColor=#000000;fontSize=16;fontColor=#000000;" vertex="1" parent="yqSlcoim51JeQD3WpPbe-37">
          <mxGeometry y="98" width="239.75" height="57" as="geometry" />
        </mxCell>
        <mxCell id="yqSlcoim51JeQD3WpPbe-42" value="" style="shape=partialRectangle;connectable=0;fillColor=none;top=0;left=0;bottom=0;right=0;editable=1;overflow=hidden;whiteSpace=wrap;html=1;strokeColor=#000000;fontSize=16;fontColor=#000000;" vertex="1" parent="yqSlcoim51JeQD3WpPbe-41">
          <mxGeometry width="30" height="57" as="geometry">
            <mxRectangle width="30" height="57" as="alternateBounds" />
          </mxGeometry>
        </mxCell>
        <mxCell id="yqSlcoim51JeQD3WpPbe-43" value="product_id" style="shape=partialRectangle;connectable=0;fillColor=none;top=0;left=0;bottom=0;right=0;align=left;spacingLeft=6;overflow=hidden;whiteSpace=wrap;html=1;strokeColor=#000000;fontSize=16;fontColor=#000000;" vertex="1" parent="yqSlcoim51JeQD3WpPbe-41">
          <mxGeometry x="30" width="209.75" height="57" as="geometry">
            <mxRectangle width="209.75" height="57" as="alternateBounds" />
          </mxGeometry>
        </mxCell>
        <mxCell id="yqSlcoim51JeQD3WpPbe-44" value="" style="shape=tableRow;horizontal=0;startSize=0;swimlaneHead=0;swimlaneBody=0;fillColor=none;collapsible=0;dropTarget=0;points=[[0,0.5],[1,0.5]];portConstraint=eastwest;top=0;left=0;right=0;bottom=0;strokeColor=#000000;fontSize=16;fontColor=#000000;" vertex="1" parent="yqSlcoim51JeQD3WpPbe-37">
          <mxGeometry y="155" width="239.75" height="57" as="geometry" />
        </mxCell>
        <mxCell id="yqSlcoim51JeQD3WpPbe-45" value="" style="shape=partialRectangle;connectable=0;fillColor=none;top=0;left=0;bottom=0;right=0;editable=1;overflow=hidden;whiteSpace=wrap;html=1;strokeColor=#000000;fontSize=16;fontColor=#000000;" vertex="1" parent="yqSlcoim51JeQD3WpPbe-44">
          <mxGeometry width="30" height="57" as="geometry">
            <mxRectangle width="30" height="57" as="alternateBounds" />
          </mxGeometry>
        </mxCell>
        <mxCell id="yqSlcoim51JeQD3WpPbe-46" value="product_number" style="shape=partialRectangle;connectable=0;fillColor=none;top=0;left=0;bottom=0;right=0;align=left;spacingLeft=6;overflow=hidden;whiteSpace=wrap;html=1;strokeColor=#000000;fontSize=16;fontColor=#000000;" vertex="1" parent="yqSlcoim51JeQD3WpPbe-44">
          <mxGeometry x="30" width="209.75" height="57" as="geometry">
            <mxRectangle width="209.75" height="57" as="alternateBounds" />
          </mxGeometry>
        </mxCell>
        <mxCell id="yqSlcoim51JeQD3WpPbe-47" value="" style="shape=tableRow;horizontal=0;startSize=0;swimlaneHead=0;swimlaneBody=0;fillColor=none;collapsible=0;dropTarget=0;points=[[0,0.5],[1,0.5]];portConstraint=eastwest;top=0;left=0;right=0;bottom=0;strokeColor=#000000;fontSize=16;fontColor=#000000;" vertex="1" parent="yqSlcoim51JeQD3WpPbe-37">
          <mxGeometry y="212" width="239.75" height="57" as="geometry" />
        </mxCell>
        <mxCell id="yqSlcoim51JeQD3WpPbe-48" value="" style="shape=partialRectangle;connectable=0;fillColor=none;top=0;left=0;bottom=0;right=0;editable=1;overflow=hidden;whiteSpace=wrap;html=1;strokeColor=#000000;fontSize=16;fontColor=#000000;" vertex="1" parent="yqSlcoim51JeQD3WpPbe-47">
          <mxGeometry width="30" height="57" as="geometry">
            <mxRectangle width="30" height="57" as="alternateBounds" />
          </mxGeometry>
        </mxCell>
        <mxCell id="yqSlcoim51JeQD3WpPbe-49" value="product_name" style="shape=partialRectangle;connectable=0;fillColor=none;top=0;left=0;bottom=0;right=0;align=left;spacingLeft=6;overflow=hidden;whiteSpace=wrap;html=1;strokeColor=#000000;fontSize=16;fontColor=#000000;" vertex="1" parent="yqSlcoim51JeQD3WpPbe-47">
          <mxGeometry x="30" width="209.75" height="57" as="geometry">
            <mxRectangle width="209.75" height="57" as="alternateBounds" />
          </mxGeometry>
        </mxCell>
        <mxCell id="yqSlcoim51JeQD3WpPbe-50" value="" style="shape=tableRow;horizontal=0;startSize=0;swimlaneHead=0;swimlaneBody=0;fillColor=none;collapsible=0;dropTarget=0;points=[[0,0.5],[1,0.5]];portConstraint=eastwest;top=0;left=0;right=0;bottom=0;strokeColor=#000000;fontSize=16;fontColor=#000000;" vertex="1" parent="yqSlcoim51JeQD3WpPbe-37">
          <mxGeometry y="269" width="239.75" height="57" as="geometry" />
        </mxCell>
        <mxCell id="yqSlcoim51JeQD3WpPbe-51" value="" style="shape=partialRectangle;connectable=0;fillColor=none;top=0;left=0;bottom=0;right=0;editable=1;overflow=hidden;whiteSpace=wrap;html=1;strokeColor=#000000;fontSize=16;fontColor=#000000;" vertex="1" parent="yqSlcoim51JeQD3WpPbe-50">
          <mxGeometry width="30" height="57" as="geometry">
            <mxRectangle width="30" height="57" as="alternateBounds" />
          </mxGeometry>
        </mxCell>
        <mxCell id="yqSlcoim51JeQD3WpPbe-52" value="category_id" style="shape=partialRectangle;connectable=0;fillColor=none;top=0;left=0;bottom=0;right=0;align=left;spacingLeft=6;overflow=hidden;whiteSpace=wrap;html=1;strokeColor=#000000;fontSize=16;fontColor=#000000;" vertex="1" parent="yqSlcoim51JeQD3WpPbe-50">
          <mxGeometry x="30" width="209.75" height="57" as="geometry">
            <mxRectangle width="209.75" height="57" as="alternateBounds" />
          </mxGeometry>
        </mxCell>
        <mxCell id="yqSlcoim51JeQD3WpPbe-53" value="" style="shape=tableRow;horizontal=0;startSize=0;swimlaneHead=0;swimlaneBody=0;fillColor=none;collapsible=0;dropTarget=0;points=[[0,0.5],[1,0.5]];portConstraint=eastwest;top=0;left=0;right=0;bottom=0;strokeColor=#000000;fontSize=16;fontColor=#000000;" vertex="1" parent="yqSlcoim51JeQD3WpPbe-37">
          <mxGeometry y="326" width="239.75" height="57" as="geometry" />
        </mxCell>
        <mxCell id="yqSlcoim51JeQD3WpPbe-54" value="" style="shape=partialRectangle;connectable=0;fillColor=none;top=0;left=0;bottom=0;right=0;editable=1;overflow=hidden;whiteSpace=wrap;html=1;strokeColor=#000000;fontSize=16;fontColor=#000000;" vertex="1" parent="yqSlcoim51JeQD3WpPbe-53">
          <mxGeometry width="30" height="57" as="geometry">
            <mxRectangle width="30" height="57" as="alternateBounds" />
          </mxGeometry>
        </mxCell>
        <mxCell id="yqSlcoim51JeQD3WpPbe-55" value="category" style="shape=partialRectangle;connectable=0;fillColor=none;top=0;left=0;bottom=0;right=0;align=left;spacingLeft=6;overflow=hidden;whiteSpace=wrap;html=1;strokeColor=#000000;fontSize=16;fontColor=#000000;" vertex="1" parent="yqSlcoim51JeQD3WpPbe-53">
          <mxGeometry x="30" width="209.75" height="57" as="geometry">
            <mxRectangle width="209.75" height="57" as="alternateBounds" />
          </mxGeometry>
        </mxCell>
        <mxCell id="yqSlcoim51JeQD3WpPbe-56" value="" style="shape=tableRow;horizontal=0;startSize=0;swimlaneHead=0;swimlaneBody=0;fillColor=none;collapsible=0;dropTarget=0;points=[[0,0.5],[1,0.5]];portConstraint=eastwest;top=0;left=0;right=0;bottom=0;strokeColor=#000000;fontSize=16;fontColor=#000000;" vertex="1" parent="yqSlcoim51JeQD3WpPbe-37">
          <mxGeometry y="383" width="239.75" height="57" as="geometry" />
        </mxCell>
        <mxCell id="yqSlcoim51JeQD3WpPbe-57" value="" style="shape=partialRectangle;connectable=0;fillColor=none;top=0;left=0;bottom=0;right=0;editable=1;overflow=hidden;whiteSpace=wrap;html=1;strokeColor=#000000;fontSize=16;fontColor=#000000;" vertex="1" parent="yqSlcoim51JeQD3WpPbe-56">
          <mxGeometry width="30" height="57" as="geometry">
            <mxRectangle width="30" height="57" as="alternateBounds" />
          </mxGeometry>
        </mxCell>
        <mxCell id="yqSlcoim51JeQD3WpPbe-58" value="subcategory" style="shape=partialRectangle;connectable=0;fillColor=none;top=0;left=0;bottom=0;right=0;align=left;spacingLeft=6;overflow=hidden;whiteSpace=wrap;html=1;strokeColor=#000000;fontSize=16;fontColor=#000000;" vertex="1" parent="yqSlcoim51JeQD3WpPbe-56">
          <mxGeometry x="30" width="209.75" height="57" as="geometry">
            <mxRectangle width="209.75" height="57" as="alternateBounds" />
          </mxGeometry>
        </mxCell>
        <mxCell id="yqSlcoim51JeQD3WpPbe-59" value="" style="shape=tableRow;horizontal=0;startSize=0;swimlaneHead=0;swimlaneBody=0;fillColor=none;collapsible=0;dropTarget=0;points=[[0,0.5],[1,0.5]];portConstraint=eastwest;top=0;left=0;right=0;bottom=0;strokeColor=#000000;fontSize=16;fontColor=#000000;" vertex="1" parent="yqSlcoim51JeQD3WpPbe-37">
          <mxGeometry y="440" width="239.75" height="57" as="geometry" />
        </mxCell>
        <mxCell id="yqSlcoim51JeQD3WpPbe-60" value="" style="shape=partialRectangle;connectable=0;fillColor=none;top=0;left=0;bottom=0;right=0;editable=1;overflow=hidden;whiteSpace=wrap;html=1;strokeColor=#000000;fontSize=16;fontColor=#000000;" vertex="1" parent="yqSlcoim51JeQD3WpPbe-59">
          <mxGeometry width="30" height="57" as="geometry">
            <mxRectangle width="30" height="57" as="alternateBounds" />
          </mxGeometry>
        </mxCell>
        <mxCell id="yqSlcoim51JeQD3WpPbe-61" value="maintenance" style="shape=partialRectangle;connectable=0;fillColor=none;top=0;left=0;bottom=0;right=0;align=left;spacingLeft=6;overflow=hidden;whiteSpace=wrap;html=1;strokeColor=#000000;fontSize=16;fontColor=#000000;" vertex="1" parent="yqSlcoim51JeQD3WpPbe-59">
          <mxGeometry x="30" width="209.75" height="57" as="geometry">
            <mxRectangle width="209.75" height="57" as="alternateBounds" />
          </mxGeometry>
        </mxCell>
        <mxCell id="yqSlcoim51JeQD3WpPbe-62" value="" style="shape=tableRow;horizontal=0;startSize=0;swimlaneHead=0;swimlaneBody=0;fillColor=none;collapsible=0;dropTarget=0;points=[[0,0.5],[1,0.5]];portConstraint=eastwest;top=0;left=0;right=0;bottom=0;strokeColor=#000000;fontSize=16;fontColor=#000000;" vertex="1" parent="yqSlcoim51JeQD3WpPbe-37">
          <mxGeometry y="497" width="239.75" height="57" as="geometry" />
        </mxCell>
        <mxCell id="yqSlcoim51JeQD3WpPbe-63" value="" style="shape=partialRectangle;connectable=0;fillColor=none;top=0;left=0;bottom=0;right=0;editable=1;overflow=hidden;whiteSpace=wrap;html=1;strokeColor=#000000;fontSize=16;fontColor=#000000;" vertex="1" parent="yqSlcoim51JeQD3WpPbe-62">
          <mxGeometry width="30" height="57" as="geometry">
            <mxRectangle width="30" height="57" as="alternateBounds" />
          </mxGeometry>
        </mxCell>
        <mxCell id="yqSlcoim51JeQD3WpPbe-64" value="cost" style="shape=partialRectangle;connectable=0;fillColor=none;top=0;left=0;bottom=0;right=0;align=left;spacingLeft=6;overflow=hidden;whiteSpace=wrap;html=1;strokeColor=#000000;fontSize=16;fontColor=#000000;" vertex="1" parent="yqSlcoim51JeQD3WpPbe-62">
          <mxGeometry x="30" width="209.75" height="57" as="geometry">
            <mxRectangle width="209.75" height="57" as="alternateBounds" />
          </mxGeometry>
        </mxCell>
        <mxCell id="yqSlcoim51JeQD3WpPbe-65" value="" style="shape=tableRow;horizontal=0;startSize=0;swimlaneHead=0;swimlaneBody=0;fillColor=none;collapsible=0;dropTarget=0;points=[[0,0.5],[1,0.5]];portConstraint=eastwest;top=0;left=0;right=0;bottom=0;strokeColor=#000000;fontSize=16;fontColor=#000000;" vertex="1" parent="yqSlcoim51JeQD3WpPbe-37">
          <mxGeometry y="554" width="239.75" height="57" as="geometry" />
        </mxCell>
        <mxCell id="yqSlcoim51JeQD3WpPbe-66" value="" style="shape=partialRectangle;connectable=0;fillColor=none;top=0;left=0;bottom=0;right=0;editable=1;overflow=hidden;whiteSpace=wrap;html=1;strokeColor=#000000;fontSize=16;fontColor=#000000;" vertex="1" parent="yqSlcoim51JeQD3WpPbe-65">
          <mxGeometry width="30" height="57" as="geometry">
            <mxRectangle width="30" height="57" as="alternateBounds" />
          </mxGeometry>
        </mxCell>
        <mxCell id="yqSlcoim51JeQD3WpPbe-67" value="product_line" style="shape=partialRectangle;connectable=0;fillColor=none;top=0;left=0;bottom=0;right=0;align=left;spacingLeft=6;overflow=hidden;whiteSpace=wrap;html=1;strokeColor=#000000;fontSize=16;fontColor=#000000;" vertex="1" parent="yqSlcoim51JeQD3WpPbe-65">
          <mxGeometry x="30" width="209.75" height="57" as="geometry">
            <mxRectangle width="209.75" height="57" as="alternateBounds" />
          </mxGeometry>
        </mxCell>
        <mxCell id="yqSlcoim51JeQD3WpPbe-99" value="" style="shape=tableRow;horizontal=0;startSize=0;swimlaneHead=0;swimlaneBody=0;fillColor=none;collapsible=0;dropTarget=0;points=[[0,0.5],[1,0.5]];portConstraint=eastwest;top=0;left=0;right=0;bottom=0;strokeColor=#000000;fontSize=16;fontColor=#000000;" vertex="1" parent="yqSlcoim51JeQD3WpPbe-37">
          <mxGeometry y="611" width="239.75" height="57" as="geometry" />
        </mxCell>
        <mxCell id="yqSlcoim51JeQD3WpPbe-100" value="" style="shape=partialRectangle;connectable=0;fillColor=none;top=0;left=0;bottom=0;right=0;editable=1;overflow=hidden;whiteSpace=wrap;html=1;strokeColor=#000000;fontSize=16;fontColor=#000000;" vertex="1" parent="yqSlcoim51JeQD3WpPbe-99">
          <mxGeometry width="30" height="57" as="geometry">
            <mxRectangle width="30" height="57" as="alternateBounds" />
          </mxGeometry>
        </mxCell>
        <mxCell id="yqSlcoim51JeQD3WpPbe-101" value="start_date" style="shape=partialRectangle;connectable=0;fillColor=none;top=0;left=0;bottom=0;right=0;align=left;spacingLeft=6;overflow=hidden;whiteSpace=wrap;html=1;strokeColor=#000000;fontSize=16;fontColor=#000000;" vertex="1" parent="yqSlcoim51JeQD3WpPbe-99">
          <mxGeometry x="30" width="209.75" height="57" as="geometry">
            <mxRectangle width="209.75" height="57" as="alternateBounds" />
          </mxGeometry>
        </mxCell>
        <mxCell id="yqSlcoim51JeQD3WpPbe-68" value="&lt;font style=&quot;color: rgb(0, 0, 0);&quot;&gt;gold.fact_sales&lt;/font&gt;" style="shape=table;startSize=41;container=1;collapsible=1;childLayout=tableLayout;fixedRows=1;rowLines=0;fontStyle=1;align=center;resizeLast=1;html=1;strokeColor=#000000;rounded=1;fillColor=#d5e8d4;fontSize=16;labelBackgroundColor=none;gradientColor=#97d077;" vertex="1" parent="1">
          <mxGeometry x="278" y="170" width="258.3499755859375" height="554" as="geometry">
            <mxRectangle x="40" y="100" width="64" height="30" as="alternateBounds" />
          </mxGeometry>
        </mxCell>
        <mxCell id="yqSlcoim51JeQD3WpPbe-72" value="" style="shape=tableRow;horizontal=0;startSize=0;swimlaneHead=0;swimlaneBody=0;fillColor=none;collapsible=0;dropTarget=0;points=[[0,0.5],[1,0.5]];portConstraint=eastwest;top=0;left=0;right=0;bottom=0;strokeColor=#000000;fontSize=16;fontColor=#000000;" vertex="1" parent="yqSlcoim51JeQD3WpPbe-68">
          <mxGeometry y="41" width="258.3499755859375" height="57" as="geometry" />
        </mxCell>
        <mxCell id="yqSlcoim51JeQD3WpPbe-73" value="" style="shape=partialRectangle;connectable=0;fillColor=none;top=0;left=0;bottom=0;right=0;editable=1;overflow=hidden;whiteSpace=wrap;html=1;strokeColor=#000000;fontSize=16;fontColor=#000000;" vertex="1" parent="yqSlcoim51JeQD3WpPbe-72">
          <mxGeometry width="37.3499755859375" height="57" as="geometry">
            <mxRectangle width="37.3499755859375" height="57" as="alternateBounds" />
          </mxGeometry>
        </mxCell>
        <mxCell id="yqSlcoim51JeQD3WpPbe-74" value="order_number" style="shape=partialRectangle;connectable=0;fillColor=none;top=0;left=0;bottom=0;right=0;align=left;spacingLeft=6;overflow=hidden;whiteSpace=wrap;html=1;strokeColor=#000000;fontSize=16;fontColor=#000000;" vertex="1" parent="yqSlcoim51JeQD3WpPbe-72">
          <mxGeometry x="37.3499755859375" width="221" height="57" as="geometry">
            <mxRectangle width="221" height="57" as="alternateBounds" />
          </mxGeometry>
        </mxCell>
        <mxCell id="yqSlcoim51JeQD3WpPbe-75" value="" style="shape=tableRow;horizontal=0;startSize=0;swimlaneHead=0;swimlaneBody=0;fillColor=none;collapsible=0;dropTarget=0;points=[[0,0.5],[1,0.5]];portConstraint=eastwest;top=0;left=0;right=0;bottom=0;strokeColor=#000000;fontSize=16;fontColor=#000000;" vertex="1" parent="yqSlcoim51JeQD3WpPbe-68">
          <mxGeometry y="98" width="258.3499755859375" height="57" as="geometry" />
        </mxCell>
        <mxCell id="yqSlcoim51JeQD3WpPbe-76" value="&lt;b&gt;FK1&lt;/b&gt;" style="shape=partialRectangle;connectable=0;fillColor=none;top=0;left=0;bottom=0;right=0;editable=1;overflow=hidden;whiteSpace=wrap;html=1;strokeColor=#000000;fontSize=16;fontColor=#000000;" vertex="1" parent="yqSlcoim51JeQD3WpPbe-75">
          <mxGeometry width="37.3499755859375" height="57" as="geometry">
            <mxRectangle width="37.3499755859375" height="57" as="alternateBounds" />
          </mxGeometry>
        </mxCell>
        <mxCell id="yqSlcoim51JeQD3WpPbe-77" value="&lt;b&gt;product_key&lt;/b&gt;" style="shape=partialRectangle;connectable=0;fillColor=none;top=0;left=0;bottom=0;right=0;align=left;spacingLeft=6;overflow=hidden;whiteSpace=wrap;html=1;strokeColor=#000000;fontSize=16;fontColor=#000000;" vertex="1" parent="yqSlcoim51JeQD3WpPbe-75">
          <mxGeometry x="37.3499755859375" width="221" height="57" as="geometry">
            <mxRectangle width="221" height="57" as="alternateBounds" />
          </mxGeometry>
        </mxCell>
        <mxCell id="yqSlcoim51JeQD3WpPbe-78" value="" style="shape=tableRow;horizontal=0;startSize=0;swimlaneHead=0;swimlaneBody=0;fillColor=none;collapsible=0;dropTarget=0;points=[[0,0.5],[1,0.5]];portConstraint=eastwest;top=0;left=0;right=0;bottom=0;strokeColor=#000000;fontSize=16;fontColor=#000000;" vertex="1" parent="yqSlcoim51JeQD3WpPbe-68">
          <mxGeometry y="155" width="258.3499755859375" height="57" as="geometry" />
        </mxCell>
        <mxCell id="yqSlcoim51JeQD3WpPbe-79" value="&lt;b&gt;FK2&lt;/b&gt;" style="shape=partialRectangle;connectable=0;fillColor=none;top=0;left=0;bottom=0;right=0;editable=1;overflow=hidden;whiteSpace=wrap;html=1;strokeColor=#000000;fontSize=16;fontColor=#000000;" vertex="1" parent="yqSlcoim51JeQD3WpPbe-78">
          <mxGeometry width="37.3499755859375" height="57" as="geometry">
            <mxRectangle width="37.3499755859375" height="57" as="alternateBounds" />
          </mxGeometry>
        </mxCell>
        <mxCell id="yqSlcoim51JeQD3WpPbe-80" value="&lt;b&gt;customer_key&lt;/b&gt;" style="shape=partialRectangle;connectable=0;fillColor=none;top=0;left=0;bottom=0;right=0;align=left;spacingLeft=6;overflow=hidden;whiteSpace=wrap;html=1;strokeColor=#000000;fontSize=16;fontColor=#000000;" vertex="1" parent="yqSlcoim51JeQD3WpPbe-78">
          <mxGeometry x="37.3499755859375" width="221" height="57" as="geometry">
            <mxRectangle width="221" height="57" as="alternateBounds" />
          </mxGeometry>
        </mxCell>
        <mxCell id="yqSlcoim51JeQD3WpPbe-81" value="" style="shape=tableRow;horizontal=0;startSize=0;swimlaneHead=0;swimlaneBody=0;fillColor=none;collapsible=0;dropTarget=0;points=[[0,0.5],[1,0.5]];portConstraint=eastwest;top=0;left=0;right=0;bottom=0;strokeColor=#000000;fontSize=16;fontColor=#000000;" vertex="1" parent="yqSlcoim51JeQD3WpPbe-68">
          <mxGeometry y="212" width="258.3499755859375" height="57" as="geometry" />
        </mxCell>
        <mxCell id="yqSlcoim51JeQD3WpPbe-82" value="" style="shape=partialRectangle;connectable=0;fillColor=none;top=0;left=0;bottom=0;right=0;editable=1;overflow=hidden;whiteSpace=wrap;html=1;strokeColor=#000000;fontSize=16;fontColor=#000000;" vertex="1" parent="yqSlcoim51JeQD3WpPbe-81">
          <mxGeometry width="37.3499755859375" height="57" as="geometry">
            <mxRectangle width="37.3499755859375" height="57" as="alternateBounds" />
          </mxGeometry>
        </mxCell>
        <mxCell id="yqSlcoim51JeQD3WpPbe-83" value="order_date" style="shape=partialRectangle;connectable=0;fillColor=none;top=0;left=0;bottom=0;right=0;align=left;spacingLeft=6;overflow=hidden;whiteSpace=wrap;html=1;strokeColor=#000000;fontSize=16;fontColor=#000000;" vertex="1" parent="yqSlcoim51JeQD3WpPbe-81">
          <mxGeometry x="37.3499755859375" width="221" height="57" as="geometry">
            <mxRectangle width="221" height="57" as="alternateBounds" />
          </mxGeometry>
        </mxCell>
        <mxCell id="yqSlcoim51JeQD3WpPbe-84" value="" style="shape=tableRow;horizontal=0;startSize=0;swimlaneHead=0;swimlaneBody=0;fillColor=none;collapsible=0;dropTarget=0;points=[[0,0.5],[1,0.5]];portConstraint=eastwest;top=0;left=0;right=0;bottom=0;strokeColor=#000000;fontSize=16;fontColor=#000000;" vertex="1" parent="yqSlcoim51JeQD3WpPbe-68">
          <mxGeometry y="269" width="258.3499755859375" height="57" as="geometry" />
        </mxCell>
        <mxCell id="yqSlcoim51JeQD3WpPbe-85" value="" style="shape=partialRectangle;connectable=0;fillColor=none;top=0;left=0;bottom=0;right=0;editable=1;overflow=hidden;whiteSpace=wrap;html=1;strokeColor=#000000;fontSize=16;fontColor=#000000;" vertex="1" parent="yqSlcoim51JeQD3WpPbe-84">
          <mxGeometry width="37.3499755859375" height="57" as="geometry">
            <mxRectangle width="37.3499755859375" height="57" as="alternateBounds" />
          </mxGeometry>
        </mxCell>
        <mxCell id="yqSlcoim51JeQD3WpPbe-86" value="shipping_date" style="shape=partialRectangle;connectable=0;fillColor=none;top=0;left=0;bottom=0;right=0;align=left;spacingLeft=6;overflow=hidden;whiteSpace=wrap;html=1;strokeColor=#000000;fontSize=16;fontColor=#000000;" vertex="1" parent="yqSlcoim51JeQD3WpPbe-84">
          <mxGeometry x="37.3499755859375" width="221" height="57" as="geometry">
            <mxRectangle width="221" height="57" as="alternateBounds" />
          </mxGeometry>
        </mxCell>
        <mxCell id="yqSlcoim51JeQD3WpPbe-87" value="" style="shape=tableRow;horizontal=0;startSize=0;swimlaneHead=0;swimlaneBody=0;fillColor=none;collapsible=0;dropTarget=0;points=[[0,0.5],[1,0.5]];portConstraint=eastwest;top=0;left=0;right=0;bottom=0;strokeColor=#000000;fontSize=16;fontColor=#000000;" vertex="1" parent="yqSlcoim51JeQD3WpPbe-68">
          <mxGeometry y="326" width="258.3499755859375" height="57" as="geometry" />
        </mxCell>
        <mxCell id="yqSlcoim51JeQD3WpPbe-88" value="" style="shape=partialRectangle;connectable=0;fillColor=none;top=0;left=0;bottom=0;right=0;editable=1;overflow=hidden;whiteSpace=wrap;html=1;strokeColor=#000000;fontSize=16;fontColor=#000000;" vertex="1" parent="yqSlcoim51JeQD3WpPbe-87">
          <mxGeometry width="37.3499755859375" height="57" as="geometry">
            <mxRectangle width="37.3499755859375" height="57" as="alternateBounds" />
          </mxGeometry>
        </mxCell>
        <mxCell id="yqSlcoim51JeQD3WpPbe-89" value="due_date" style="shape=partialRectangle;connectable=0;fillColor=none;top=0;left=0;bottom=0;right=0;align=left;spacingLeft=6;overflow=hidden;whiteSpace=wrap;html=1;strokeColor=#000000;fontSize=16;fontColor=#000000;" vertex="1" parent="yqSlcoim51JeQD3WpPbe-87">
          <mxGeometry x="37.3499755859375" width="221" height="57" as="geometry">
            <mxRectangle width="221" height="57" as="alternateBounds" />
          </mxGeometry>
        </mxCell>
        <mxCell id="yqSlcoim51JeQD3WpPbe-90" value="" style="shape=tableRow;horizontal=0;startSize=0;swimlaneHead=0;swimlaneBody=0;fillColor=none;collapsible=0;dropTarget=0;points=[[0,0.5],[1,0.5]];portConstraint=eastwest;top=0;left=0;right=0;bottom=0;strokeColor=#000000;fontSize=16;fontColor=#000000;" vertex="1" parent="yqSlcoim51JeQD3WpPbe-68">
          <mxGeometry y="383" width="258.3499755859375" height="57" as="geometry" />
        </mxCell>
        <mxCell id="yqSlcoim51JeQD3WpPbe-91" value="" style="shape=partialRectangle;connectable=0;fillColor=none;top=0;left=0;bottom=0;right=0;editable=1;overflow=hidden;whiteSpace=wrap;html=1;strokeColor=#000000;fontSize=16;fontColor=#000000;" vertex="1" parent="yqSlcoim51JeQD3WpPbe-90">
          <mxGeometry width="37.3499755859375" height="57" as="geometry">
            <mxRectangle width="37.3499755859375" height="57" as="alternateBounds" />
          </mxGeometry>
        </mxCell>
        <mxCell id="yqSlcoim51JeQD3WpPbe-92" value="sales_amount" style="shape=partialRectangle;connectable=0;fillColor=none;top=0;left=0;bottom=0;right=0;align=left;spacingLeft=6;overflow=hidden;whiteSpace=wrap;html=1;strokeColor=#000000;fontSize=16;fontColor=#000000;" vertex="1" parent="yqSlcoim51JeQD3WpPbe-90">
          <mxGeometry x="37.3499755859375" width="221" height="57" as="geometry">
            <mxRectangle width="221" height="57" as="alternateBounds" />
          </mxGeometry>
        </mxCell>
        <mxCell id="yqSlcoim51JeQD3WpPbe-93" value="" style="shape=tableRow;horizontal=0;startSize=0;swimlaneHead=0;swimlaneBody=0;fillColor=none;collapsible=0;dropTarget=0;points=[[0,0.5],[1,0.5]];portConstraint=eastwest;top=0;left=0;right=0;bottom=0;strokeColor=#000000;fontSize=16;fontColor=#000000;" vertex="1" parent="yqSlcoim51JeQD3WpPbe-68">
          <mxGeometry y="440" width="258.3499755859375" height="57" as="geometry" />
        </mxCell>
        <mxCell id="yqSlcoim51JeQD3WpPbe-94" value="" style="shape=partialRectangle;connectable=0;fillColor=none;top=0;left=0;bottom=0;right=0;editable=1;overflow=hidden;whiteSpace=wrap;html=1;strokeColor=#000000;fontSize=16;fontColor=#000000;" vertex="1" parent="yqSlcoim51JeQD3WpPbe-93">
          <mxGeometry width="37.3499755859375" height="57" as="geometry">
            <mxRectangle width="37.3499755859375" height="57" as="alternateBounds" />
          </mxGeometry>
        </mxCell>
        <mxCell id="yqSlcoim51JeQD3WpPbe-95" value="quantity" style="shape=partialRectangle;connectable=0;fillColor=none;top=0;left=0;bottom=0;right=0;align=left;spacingLeft=6;overflow=hidden;whiteSpace=wrap;html=1;strokeColor=#000000;fontSize=16;fontColor=#000000;" vertex="1" parent="yqSlcoim51JeQD3WpPbe-93">
          <mxGeometry x="37.3499755859375" width="221" height="57" as="geometry">
            <mxRectangle width="221" height="57" as="alternateBounds" />
          </mxGeometry>
        </mxCell>
        <mxCell id="yqSlcoim51JeQD3WpPbe-96" value="" style="shape=tableRow;horizontal=0;startSize=0;swimlaneHead=0;swimlaneBody=0;fillColor=none;collapsible=0;dropTarget=0;points=[[0,0.5],[1,0.5]];portConstraint=eastwest;top=0;left=0;right=0;bottom=0;strokeColor=#000000;fontSize=16;fontColor=#000000;" vertex="1" parent="yqSlcoim51JeQD3WpPbe-68">
          <mxGeometry y="497" width="258.3499755859375" height="57" as="geometry" />
        </mxCell>
        <mxCell id="yqSlcoim51JeQD3WpPbe-97" value="" style="shape=partialRectangle;connectable=0;fillColor=none;top=0;left=0;bottom=0;right=0;editable=1;overflow=hidden;whiteSpace=wrap;html=1;strokeColor=#000000;fontSize=16;fontColor=#000000;" vertex="1" parent="yqSlcoim51JeQD3WpPbe-96">
          <mxGeometry width="37.3499755859375" height="57" as="geometry">
            <mxRectangle width="37.3499755859375" height="57" as="alternateBounds" />
          </mxGeometry>
        </mxCell>
        <mxCell id="yqSlcoim51JeQD3WpPbe-98" value="price" style="shape=partialRectangle;connectable=0;fillColor=none;top=0;left=0;bottom=0;right=0;align=left;spacingLeft=6;overflow=hidden;whiteSpace=wrap;html=1;strokeColor=#000000;fontSize=16;fontColor=#000000;" vertex="1" parent="yqSlcoim51JeQD3WpPbe-96">
          <mxGeometry x="37.3499755859375" width="221" height="57" as="geometry">
            <mxRectangle width="221" height="57" as="alternateBounds" />
          </mxGeometry>
        </mxCell>
        <mxCell id="yqSlcoim51JeQD3WpPbe-103" value="" style="edgeStyle=entityRelationEdgeStyle;fontSize=12;html=1;endArrow=ERzeroToMany;startArrow=ERmandOne;rounded=0;entryX=0;entryY=0.5;entryDx=0;entryDy=0;dashed=1;dashPattern=8 8;strokeColor=#000000;exitX=1;exitY=0.5;exitDx=0;exitDy=0;" edge="1" parent="1" source="yqSlcoim51JeQD3WpPbe-7" target="yqSlcoim51JeQD3WpPbe-78">
          <mxGeometry width="100" height="100" relative="1" as="geometry">
            <mxPoint x="206" y="178" as="sourcePoint" />
            <mxPoint x="306" y="78" as="targetPoint" />
          </mxGeometry>
        </mxCell>
        <mxCell id="yqSlcoim51JeQD3WpPbe-104" value="" style="edgeStyle=entityRelationEdgeStyle;fontSize=12;html=1;endArrow=ERzeroToMany;startArrow=ERmandOne;rounded=0;entryX=1;entryY=0.5;entryDx=0;entryDy=0;dashed=1;dashPattern=8 8;strokeColor=#000000;exitX=0;exitY=0.5;exitDx=0;exitDy=0;" edge="1" parent="1" source="yqSlcoim51JeQD3WpPbe-38" target="yqSlcoim51JeQD3WpPbe-75">
          <mxGeometry width="100" height="100" relative="1" as="geometry">
            <mxPoint x="543" y="227" as="sourcePoint" />
            <mxPoint x="625" y="403" as="targetPoint" />
          </mxGeometry>
        </mxCell>
      </root>
    </mxGraphModel>
  </diagram>
</mxfile>
